<svg width="16" height="16" viewBox="0 0 16 16" fill="none" xmlns="http://www.w3.org/2000/svg">
<path d="M9.6582 9.69824H11.7021C11.6611 10.3682 11.4766 10.9629 11.1484 11.4824C10.8249 12.002 10.3714 12.4076 9.78809 12.6992C9.20931 12.9909 8.51204 13.1367 7.69629 13.1367C7.05827 13.1367 6.48633 13.0273 5.98047 12.8086C5.47461 12.5853 5.04167 12.2663 4.68164 11.8516C4.32617 11.4368 4.05501 10.9355 3.86816 10.3477C3.68132 9.75977 3.58789 9.10124 3.58789 8.37207V7.68164C3.58789 6.95247 3.68359 6.29395 3.875 5.70605C4.07096 5.11361 4.34896 4.61003 4.70898 4.19531C5.07357 3.7806 5.50879 3.46159 6.01465 3.23828C6.52051 3.01497 7.08561 2.90332 7.70996 2.90332C8.53939 2.90332 9.23893 3.05371 9.80859 3.35449C10.3828 3.65527 10.8271 4.06999 11.1416 4.59863C11.4606 5.12728 11.652 5.72884 11.7158 6.40332H9.66504C9.64225 6.00228 9.5625 5.66276 9.42578 5.38477C9.28906 5.10221 9.08171 4.8903 8.80371 4.74902C8.53027 4.60319 8.16569 4.53027 7.70996 4.53027C7.36816 4.53027 7.06966 4.59408 6.81445 4.72168C6.55924 4.84928 6.34505 5.04297 6.17188 5.30273C5.9987 5.5625 5.86882 5.89062 5.78223 6.28711C5.7002 6.67904 5.65918 7.13932 5.65918 7.66797V8.37207C5.65918 8.88704 5.69792 9.34049 5.77539 9.73242C5.85286 10.1198 5.97135 10.4479 6.13086 10.7168C6.29492 10.9811 6.50456 11.1816 6.75977 11.3184C7.01953 11.4505 7.33171 11.5166 7.69629 11.5166C8.12467 11.5166 8.47786 11.4482 8.75586 11.3115C9.03385 11.1748 9.24577 10.972 9.3916 10.7031C9.54199 10.4342 9.63086 10.0993 9.6582 9.69824Z" fill="#FFAA26"/>
</svg>
